<?xml version="1.0" encoding="UTF-8"?><svg id="Layer_1" xmlns="http://www.w3.org/2000/svg" xmlns:xlink="http://www.w3.org/1999/xlink" viewBox="0 0 1000 1000"><defs><style>.cls-1{fill:url(#linear-gradient);}.cls-2{fill:url(#linear-gradient-3);}.cls-3{fill:url(#linear-gradient-4);}.cls-4{fill:url(#linear-gradient-2);}.cls-5{fill:url(#linear-gradient-6);}.cls-6{fill:url(#linear-gradient-7);}.cls-7{fill:url(#linear-gradient-5);}</style><linearGradient id="linear-gradient" x1="593.09" y1="430.15" x2="626.32" y2="430.15" gradientTransform="matrix(1, 0, 0, 1, 0, 0)" gradientUnits="userSpaceOnUse"><stop offset="0" stop-color="#41d1ff"/><stop offset="1" stop-color="#bd34fe"/></linearGradient><linearGradient id="linear-gradient-2" x1="31.9" y1="551.53" x2="968.1" y2="551.53" xlink:href="#linear-gradient"/><linearGradient id="linear-gradient-3" x1="176.16" y1="357.95" x2="43.48" y2="657.95" xlink:href="#linear-gradient"/><linearGradient id="linear-gradient-4" x1="956.72" y1="668.51" x2="756.43" y2="371.04" xlink:href="#linear-gradient"/><linearGradient id="linear-gradient-5" x1="987.3" y1="647.92" x2="787.02" y2="350.45" xlink:href="#linear-gradient"/><linearGradient id="linear-gradient-6" x1="358.63" y1="422.61" x2="784.2" y2="422.61" gradientTransform="matrix(1, 0, 0, 1, 0, 0)" gradientUnits="userSpaceOnUse"><stop offset="0" stop-color="#ffea83"/><stop offset=".08" stop-color="#ffdd35"/><stop offset="1" stop-color="#ffa800"/></linearGradient><linearGradient id="linear-gradient-7" x1="593.09" y1="430.15" x2="626.32" y2="430.15" xlink:href="#linear-gradient-6"/></defs><g><g><path class="cls-1" d="M608.79,415.17h-15.7v29.95h15.7c5.96,0,10.34-1.34,13.15-4.02,2.92-2.68,4.38-6.33,4.38-10.96s-1.46-8.28-4.38-10.96c-2.8-2.68-7.18-4.02-13.15-4.02Z"/><path class="cls-4" d="M939.85,134.87l-431.04,78.57c-2.81,.51-5.68,.52-8.49,.01L60.07,134.76c-19.95-3.57-35.01,17.76-24.97,35.37l144.58,253.53,17.51-41.72h42.36l-35.62,84.24,279.68,490.45c9.22,16.16,32.54,16.06,41.62-.17l284.07-507.97c-3.09-2.52-5.69-5.57-7.75-9.21-2.56-4.62-3.83-10.35-3.83-17.16,0-7.91,2.19-15.1,6.57-21.55,4.5-6.57,11.14-11.81,19.9-15.7,6.71-2.94,14.63-4.77,23.76-5.49l117.06-209.32c9.86-17.64-5.26-38.8-25.15-35.18ZM286.92,509.76h-43.09v-127.82h43.09v127.82Zm129.02-94.4h-37.43v94.4h-43.09v-94.4h-37.43v-33.41h117.96v33.41Zm117.46,94.4h-106.27v-127.82h103.9v32.5h-61.53v14.97h54.05v31.04h-54.05v16.8h63.91v32.5Zm93.1,0l-21.68-32.14h-11.74v32.14h-43.09v-127.82h61.53c11.93,0,22.21,1.95,30.86,5.84,8.76,3.89,15.52,9.49,20.27,16.8,4.75,7.18,7.12,15.7,7.12,25.56s-2.37,18.38-7.12,25.56c-4.14,6.15-9.8,11.05-16.98,14.71l26.84,39.34h-46.01Zm166.04-94.4h-37.43v94.4h-43.09v-94.4h-37.43v-33.41h117.96v33.41Z"/></g><polygon class="cls-2" points="203.92 466.18 179.77 423.42 197.18 381.94 165.88 456.53 135.46 381.94 89.08 381.94 143.13 509.76 185.49 509.76 239.54 381.94 203.92 466.18"/><g><path class="cls-3" d="M809.13,448.35l-3.87-3.83c1.19,1.39,2.47,2.67,3.87,3.83Z"/><path class="cls-7" d="M907.08,452.79c-2.56-4.5-5.97-8.16-10.22-10.96-4.14-2.8-8.7-5.05-13.69-6.76-4.99-1.7-10.04-3.04-15.15-4.02-4.99-.97-9.62-1.89-13.88-2.74-4.14-.85-7.49-1.89-10.04-3.1-2.56-1.34-3.83-3.1-3.83-5.3,0-1.46,.49-2.8,1.46-4.02,1.1-1.22,2.86-2.19,5.3-2.92,2.43-.73,5.72-1.1,9.86-1.1,5.6,0,11.32,.79,17.16,2.37,5.97,1.58,12.11,3.96,18.44,7.12l12.96-31.22c-6.7-3.77-14.24-6.57-22.64-8.4-8.4-1.83-16.92-2.74-25.56-2.74-3.23,0-6.32,.12-9.29,.36l-38.65,69.11c.74,.61,1.49,1.21,2.29,1.75,4.26,2.8,8.89,5.05,13.88,6.76,5.11,1.7,10.17,3.1,15.16,4.2,4.99,.97,9.55,1.95,13.69,2.92,4.26,.85,7.67,1.95,10.23,3.29,2.56,1.34,3.83,3.16,3.83,5.48,0,1.46-.55,2.74-1.64,3.83-1.1,.97-2.86,1.77-5.29,2.37-2.31,.49-5.54,.73-9.68,.73-7.06,0-14.37-1.04-21.91-3.1-7.43-2.19-14.18-5.05-20.27-8.58l-13.88,31.41c6.45,3.89,14.67,7.06,24.65,9.49,9.98,2.43,20.33,3.65,31.04,3.65,13.27,0,24.29-1.95,33.05-5.84,8.76-4.02,15.34-9.25,19.72-15.7,4.5-6.57,6.76-13.75,6.76-21.55,0-6.7-1.28-12.29-3.83-16.8Z"/></g></g><g><path class="cls-5" d="M626.5,509.76l-21.68-32.14h-11.74v32.14h-43.09v-127.82h61.53c11.93,0,22.21,1.95,30.86,5.84,8.76,3.89,15.52,9.49,20.27,16.8,4.75,7.18,7.12,15.7,7.12,25.56s-2.37,18.38-7.12,25.56c-4.14,6.15-9.8,11.05-16.98,14.71l21.73,31.84,43.55-86.9h-36.36v-33.41h53.1l55.22-110.2c4.44-8.86-3.22-18.97-12.95-17.09l-93.27,18c-8.76,1.69-16.22-6.47-13.75-15.05l60.87-211.03c2.48-8.59-5.01-16.76-13.78-15.04l-325.45,63.77c-5.35,1.05-9.31,5.58-9.63,11.02l-16.32,275.61h57.31v33.41h-37.43v39.38l48.62-11.22v-61.57h103.9v32.5h-61.53v14.97h54.05v31.04h-51.14l-2.9,14.22v2.58h63.91v32.5h-71.07l-14.7,72c-1.81,8.87,6.52,16.46,15.18,13.83l55.97-17c8.68-2.63,17.01,4.97,15.18,13.85l-42.78,207.06c-2.68,12.95,14.55,20.02,21.74,8.91l4.8-7.42,145.93-291.23h-37.14Z"/><path class="cls-6" d="M593.09,415.17v29.95h15.7c5.96,0,10.34-1.34,13.15-4.02,2.92-2.68,4.38-6.33,4.38-10.96s-1.46-8.28-4.38-10.96c-2.8-2.68-7.18-4.02-13.15-4.02h-15.7Z"/></g></svg>